<svg width="2101" height="588" viewBox="0 0 2101 588" fill="none" xmlns="http://www.w3.org/2000/svg">
<path d="M706.474 411.5C693.641 411.5 681.974 408.35 671.474 402.05C661.208 395.517 653.041 386.883 646.974 376.15C640.908 365.417 637.874 353.4 637.874 340.1L638.224 230.9C638.224 218.067 641.141 206.4 646.974 195.9C653.041 185.167 661.208 176.65 671.474 170.35C681.974 163.817 693.641 160.55 706.474 160.55C719.308 160.55 730.858 163.7 741.124 170C751.391 176.3 759.558 184.817 765.624 195.55C771.691 206.05 774.724 217.833 774.724 230.9V247C774.724 247.933 774.258 248.4 773.324 248.4H734.124C733.191 248.4 732.724 247.933 732.724 247V230.9C732.724 223.2 730.158 216.55 725.024 210.95C720.124 205.35 713.941 202.55 706.474 202.55C698.074 202.55 691.658 205.467 687.224 211.3C682.791 216.9 680.574 223.433 680.574 230.9V340.1C680.574 348.733 683.024 355.733 687.924 361.1C693.058 366.467 699.241 369.15 706.474 369.15C713.941 369.15 720.124 366.233 725.024 360.4C730.158 354.333 732.724 347.567 732.724 340.1V324C732.724 323.067 733.191 322.6 734.124 322.6H773.674C774.608 322.6 775.074 323.067 775.074 324V340.1C775.074 353.4 771.924 365.417 765.624 376.15C759.558 386.883 751.391 395.517 741.124 402.05C730.858 408.35 719.308 411.5 706.474 411.5ZM893.418 411.5C880.818 411.5 869.268 408.35 858.768 402.05C848.501 395.517 840.218 387 833.918 376.5C827.618 365.767 824.468 353.983 824.468 341.15L824.818 230.2C824.818 217.367 827.851 205.7 833.918 195.2C840.218 184.7 848.618 176.3 859.118 170C869.618 163.7 881.051 160.55 893.418 160.55C906.018 160.55 917.451 163.7 927.718 170C937.985 176.3 946.151 184.7 952.218 195.2C958.518 205.7 961.668 217.367 961.668 230.2L962.018 341.15C962.018 353.983 958.868 365.767 952.568 376.5C946.501 387 938.218 395.517 927.718 402.05C917.451 408.35 906.018 411.5 893.418 411.5ZM893.418 369.15C900.418 369.15 906.485 366.35 911.618 360.75C916.985 354.917 919.668 348.383 919.668 341.15L919.318 230.2C919.318 222.5 916.868 215.967 911.968 210.6C907.068 205.233 900.885 202.55 893.418 202.55C886.185 202.55 880.001 205.233 874.868 210.6C869.735 215.733 867.168 222.267 867.168 230.2V341.15C867.168 348.85 869.735 355.5 874.868 361.1C880.001 366.467 886.185 369.15 893.418 369.15ZM1018.03 408C1017.1 408 1016.63 407.417 1016.63 406.25L1017.33 165.8C1017.33 164.867 1017.8 164.4 1018.73 164.4H1089.43C1102.03 164.4 1113.58 167.55 1124.08 173.85C1134.81 179.917 1143.33 188.2 1149.63 198.7C1155.93 208.967 1159.08 220.633 1159.08 233.7C1159.08 242.333 1157.8 250.15 1155.23 257.15C1152.66 263.917 1149.63 269.75 1146.13 274.65C1142.63 279.317 1139.48 282.817 1136.68 285.15C1149.28 299.15 1155.58 315.6 1155.58 334.5L1155.93 406.25C1155.93 407.417 1155.35 408 1154.18 408H1114.63C1113.7 408 1113.23 407.65 1113.23 406.95V334.5C1113.23 326.1 1110.2 318.867 1104.13 312.8C1098.3 306.5 1091.06 303.35 1082.43 303.35H1059.33L1058.98 406.25C1058.98 407.417 1058.51 408 1057.58 408H1018.03ZM1059.33 261.35H1089.43C1096.66 261.35 1103.08 258.667 1108.68 253.3C1114.28 247.933 1117.08 241.4 1117.08 233.7C1117.08 226.233 1114.28 219.817 1108.68 214.45C1103.31 209.083 1096.9 206.4 1089.43 206.4H1059.33V261.35ZM1201.58 406.25L1244.98 165.8C1245.21 164.867 1245.79 164.4 1246.73 164.4H1297.48C1298.41 164.4 1298.99 164.867 1299.23 165.8L1340.88 406.25C1341.11 407.417 1340.64 408 1339.48 408H1300.63C1299.69 408 1299.11 407.417 1298.88 406.25L1295.03 380.7H1247.43L1243.58 406.25C1243.34 407.417 1242.76 408 1241.83 408H1202.98C1202.04 408 1201.58 407.417 1201.58 406.25ZM1254.43 343.25H1288.03L1273.68 244.9L1271.58 231.95L1270.18 244.9L1254.43 343.25ZM1447.72 411.5C1434.89 411.5 1423.22 408.35 1412.72 402.05C1402.46 395.517 1394.29 386.883 1388.22 376.15C1382.16 365.417 1379.12 353.4 1379.12 340.1L1379.47 230.9C1379.47 218.067 1382.39 206.4 1388.22 195.9C1394.29 185.167 1402.46 176.65 1412.72 170.35C1423.22 163.817 1434.89 160.55 1447.72 160.55C1460.56 160.55 1472.11 163.7 1482.37 170C1492.64 176.3 1500.81 184.817 1506.87 195.55C1512.94 206.05 1515.97 217.833 1515.97 230.9V247C1515.97 247.933 1515.51 248.4 1514.57 248.4H1475.37C1474.44 248.4 1473.97 247.933 1473.97 247V230.9C1473.97 223.2 1471.41 216.55 1466.27 210.95C1461.37 205.35 1455.19 202.55 1447.72 202.55C1439.32 202.55 1432.91 205.467 1428.47 211.3C1424.04 216.9 1421.82 223.433 1421.82 230.9V340.1C1421.82 348.733 1424.27 355.733 1429.17 361.1C1434.31 366.467 1440.49 369.15 1447.72 369.15C1455.19 369.15 1461.37 366.233 1466.27 360.4C1471.41 354.333 1473.97 347.567 1473.97 340.1V324C1473.97 323.067 1474.44 322.6 1475.37 322.6H1514.92C1515.86 322.6 1516.32 323.067 1516.32 324V340.1C1516.32 353.4 1513.17 365.417 1506.87 376.15C1500.81 386.883 1492.64 395.517 1482.37 402.05C1472.11 408.35 1460.56 411.5 1447.72 411.5ZM1571.32 408C1570.38 408 1569.92 407.417 1569.92 406.25L1570.27 166.15C1570.27 164.983 1570.85 164.4 1572.02 164.4H1610.87C1612.03 164.4 1612.62 164.983 1612.62 166.15L1612.27 364.95H1684.37C1685.53 364.95 1686.12 365.533 1686.12 366.7V406.25C1686.12 407.417 1685.53 408 1684.37 408H1571.32ZM1738.43 408C1737.49 408 1737.03 407.417 1737.03 406.25L1737.38 165.8C1737.38 164.867 1737.84 164.4 1738.78 164.4H1851.13C1852.06 164.4 1852.53 164.983 1852.53 166.15V205.35C1852.53 206.283 1852.06 206.75 1851.13 206.75H1779.38V261.35H1851.13C1852.06 261.35 1852.53 261.817 1852.53 262.75L1852.88 302.3C1852.88 303.233 1852.41 303.7 1851.48 303.7H1779.38V364.95H1851.48C1852.41 364.95 1852.88 365.533 1852.88 366.7V406.6C1852.88 407.533 1852.41 408 1851.48 408H1738.43Z" fill="white"/>
<circle cx="319" cy="294" r="209" fill="white"/>
<path d="M275.958 278.641C233.113 306.275 230.433 351.771 243.942 384.842C258.577 420.67 297.776 444.175 338.22 436.776C375.575 429.942 403.79 392.975 403.764 367.502" stroke="url(#paint0_linear_1652_649)" stroke-width="31.875" stroke-linecap="round"/>
<path d="M235.404 173.643C191.806 206.261 191.568 254.633 207.69 288.583C225.157 325.361 267.819 347.165 310.037 336.156C349.03 325.988 376.674 284.639 375.199 257.675" stroke="url(#paint1_linear_1652_649)" stroke-width="28.3334" stroke-linecap="round"/>
<path d="M472.001 293.161C472.001 325.735 461.359 357.418 441.694 383.387C422.029 409.356 394.419 428.189 363.064 437.021C331.71 445.853 298.329 444.199 268.001 432.312C237.673 420.425 212.059 398.955 195.057 371.169C178.055 343.384 170.596 310.804 173.816 278.39C177.035 245.975 190.757 215.499 212.892 191.601C235.027 167.702 264.363 151.69 296.437 146" stroke="url(#paint2_linear_1652_649)" stroke-width="35.4167" stroke-linecap="round"/>
<defs>
<linearGradient id="paint0_linear_1652_649" x1="332.749" y1="331.765" x2="271.892" y2="420.915" gradientUnits="userSpaceOnUse">
<stop stop-color="#FF9A70"/>
<stop offset="1" stop-color="#E14E16"/>
</linearGradient>
<linearGradient id="paint1_linear_1652_649" x1="298.747" y1="218.078" x2="230.593" y2="333.988" gradientUnits="userSpaceOnUse">
<stop stop-color="#FF9A70"/>
<stop offset="1" stop-color="#E14E16"/>
</linearGradient>
<linearGradient id="paint2_linear_1652_649" x1="395.082" y1="206.744" x2="222.602" y2="399.765" gradientUnits="userSpaceOnUse">
<stop stop-color="#FF9A70"/>
<stop offset="1" stop-color="#E14E16"/>
</linearGradient>
</defs>
</svg>
