<svg width="2101" height="588" viewBox="0 0 2101 588" fill="none" xmlns="http://www.w3.org/2000/svg">
<path d="M705.474 440.5C692.641 440.5 680.974 437.35 670.474 431.05C660.208 424.517 652.041 415.883 645.974 405.15C639.908 394.417 636.874 382.4 636.874 369.1L637.224 259.9C637.224 247.067 640.141 235.4 645.974 224.9C652.041 214.167 660.208 205.65 670.474 199.35C680.974 192.817 692.641 189.55 705.474 189.55C718.308 189.55 729.858 192.7 740.124 199C750.391 205.3 758.558 213.817 764.624 224.55C770.691 235.05 773.724 246.833 773.724 259.9V276C773.724 276.933 773.258 277.4 772.324 277.4H733.124C732.191 277.4 731.724 276.933 731.724 276V259.9C731.724 252.2 729.158 245.55 724.024 239.95C719.124 234.35 712.941 231.55 705.474 231.55C697.074 231.55 690.658 234.467 686.224 240.3C681.791 245.9 679.574 252.433 679.574 259.9V369.1C679.574 377.733 682.024 384.733 686.924 390.1C692.058 395.467 698.241 398.15 705.474 398.15C712.941 398.15 719.124 395.233 724.024 389.4C729.158 383.333 731.724 376.567 731.724 369.1V353C731.724 352.067 732.191 351.6 733.124 351.6H772.674C773.608 351.6 774.074 352.067 774.074 353V369.1C774.074 382.4 770.924 394.417 764.624 405.15C758.558 415.883 750.391 424.517 740.124 431.05C729.858 437.35 718.308 440.5 705.474 440.5ZM892.418 440.5C879.818 440.5 868.268 437.35 857.768 431.05C847.501 424.517 839.218 416 832.918 405.5C826.618 394.767 823.468 382.983 823.468 370.15L823.818 259.2C823.818 246.367 826.851 234.7 832.918 224.2C839.218 213.7 847.618 205.3 858.118 199C868.618 192.7 880.051 189.55 892.418 189.55C905.018 189.55 916.451 192.7 926.718 199C936.985 205.3 945.151 213.7 951.218 224.2C957.518 234.7 960.668 246.367 960.668 259.2L961.018 370.15C961.018 382.983 957.868 394.767 951.568 405.5C945.501 416 937.218 424.517 926.718 431.05C916.451 437.35 905.018 440.5 892.418 440.5ZM892.418 398.15C899.418 398.15 905.485 395.35 910.618 389.75C915.985 383.917 918.668 377.383 918.668 370.15L918.318 259.2C918.318 251.5 915.868 244.967 910.968 239.6C906.068 234.233 899.885 231.55 892.418 231.55C885.185 231.55 879.001 234.233 873.868 239.6C868.735 244.733 866.168 251.267 866.168 259.2V370.15C866.168 377.85 868.735 384.5 873.868 390.1C879.001 395.467 885.185 398.15 892.418 398.15ZM1017.03 437C1016.1 437 1015.63 436.417 1015.63 435.25L1016.33 194.8C1016.33 193.867 1016.8 193.4 1017.73 193.4H1088.43C1101.03 193.4 1112.58 196.55 1123.08 202.85C1133.81 208.917 1142.33 217.2 1148.63 227.7C1154.93 237.967 1158.08 249.633 1158.08 262.7C1158.08 271.333 1156.8 279.15 1154.23 286.15C1151.66 292.917 1148.63 298.75 1145.13 303.65C1141.63 308.317 1138.48 311.817 1135.68 314.15C1148.28 328.15 1154.58 344.6 1154.58 363.5L1154.93 435.25C1154.93 436.417 1154.35 437 1153.18 437H1113.63C1112.7 437 1112.23 436.65 1112.23 435.95V363.5C1112.23 355.1 1109.2 347.867 1103.13 341.8C1097.3 335.5 1090.06 332.35 1081.43 332.35H1058.33L1057.98 435.25C1057.98 436.417 1057.51 437 1056.58 437H1017.03ZM1058.33 290.35H1088.43C1095.66 290.35 1102.08 287.667 1107.68 282.3C1113.28 276.933 1116.08 270.4 1116.08 262.7C1116.08 255.233 1113.28 248.817 1107.68 243.45C1102.31 238.083 1095.9 235.4 1088.43 235.4H1058.33V290.35ZM1200.58 435.25L1243.98 194.8C1244.21 193.867 1244.79 193.4 1245.73 193.4H1296.48C1297.41 193.4 1297.99 193.867 1298.23 194.8L1339.88 435.25C1340.11 436.417 1339.64 437 1338.48 437H1299.63C1298.69 437 1298.11 436.417 1297.88 435.25L1294.03 409.7H1246.43L1242.58 435.25C1242.34 436.417 1241.76 437 1240.83 437H1201.98C1201.04 437 1200.58 436.417 1200.58 435.25ZM1253.43 372.25H1287.03L1272.68 273.9L1270.58 260.95L1269.18 273.9L1253.43 372.25ZM1446.72 440.5C1433.89 440.5 1422.22 437.35 1411.72 431.05C1401.46 424.517 1393.29 415.883 1387.22 405.15C1381.16 394.417 1378.12 382.4 1378.12 369.1L1378.47 259.9C1378.47 247.067 1381.39 235.4 1387.22 224.9C1393.29 214.167 1401.46 205.65 1411.72 199.35C1422.22 192.817 1433.89 189.55 1446.72 189.55C1459.56 189.55 1471.11 192.7 1481.37 199C1491.64 205.3 1499.81 213.817 1505.87 224.55C1511.94 235.05 1514.97 246.833 1514.97 259.9V276C1514.97 276.933 1514.51 277.4 1513.57 277.4H1474.37C1473.44 277.4 1472.97 276.933 1472.97 276V259.9C1472.97 252.2 1470.41 245.55 1465.27 239.95C1460.37 234.35 1454.19 231.55 1446.72 231.55C1438.32 231.55 1431.91 234.467 1427.47 240.3C1423.04 245.9 1420.82 252.433 1420.82 259.9V369.1C1420.82 377.733 1423.27 384.733 1428.17 390.1C1433.31 395.467 1439.49 398.15 1446.72 398.15C1454.19 398.15 1460.37 395.233 1465.27 389.4C1470.41 383.333 1472.97 376.567 1472.97 369.1V353C1472.97 352.067 1473.44 351.6 1474.37 351.6H1513.92C1514.86 351.6 1515.32 352.067 1515.32 353V369.1C1515.32 382.4 1512.17 394.417 1505.87 405.15C1499.81 415.883 1491.64 424.517 1481.37 431.05C1471.11 437.35 1459.56 440.5 1446.72 440.5ZM1570.32 437C1569.38 437 1568.92 436.417 1568.92 435.25L1569.27 195.15C1569.27 193.983 1569.85 193.4 1571.02 193.4H1609.87C1611.03 193.4 1611.62 193.983 1611.62 195.15L1611.27 393.95H1683.37C1684.53 393.95 1685.12 394.533 1685.12 395.7V435.25C1685.12 436.417 1684.53 437 1683.37 437H1570.32ZM1737.43 437C1736.49 437 1736.03 436.417 1736.03 435.25L1736.38 194.8C1736.38 193.867 1736.84 193.4 1737.78 193.4H1850.13C1851.06 193.4 1851.53 193.983 1851.53 195.15V234.35C1851.53 235.283 1851.06 235.75 1850.13 235.75H1778.38V290.35H1850.13C1851.06 290.35 1851.53 290.817 1851.53 291.75L1851.88 331.3C1851.88 332.233 1851.41 332.7 1850.48 332.7H1778.38V393.95H1850.48C1851.41 393.95 1851.88 394.533 1851.88 395.7V435.6C1851.88 436.533 1851.41 437 1850.48 437H1737.43Z" fill="#201E1D"/>
<path d="M278.957 291.842C236.112 319.476 233.432 364.971 246.941 398.043C261.576 433.871 300.775 457.375 341.219 449.976C378.574 443.142 406.789 406.176 406.763 380.702" stroke="url(#paint0_linear_1652_501)" stroke-width="31.875" stroke-linecap="round"/>
<path d="M238.403 186.843C194.805 219.462 194.567 267.834 210.689 301.783C228.156 338.562 270.818 360.366 313.036 349.357C352.029 339.189 379.673 297.84 378.198 270.875" stroke="url(#paint1_linear_1652_501)" stroke-width="28.3334" stroke-linecap="round"/>
<path d="M475 306.361C475 338.936 464.358 370.618 444.693 396.587C425.028 422.556 397.418 441.39 366.064 450.222C334.709 459.053 301.328 457.4 271 445.512C240.672 433.625 215.058 412.155 198.056 384.37C181.054 356.584 173.596 324.005 176.815 291.59C180.034 259.175 193.756 228.699 215.891 204.801C238.026 180.903 267.362 164.89 299.436 159.201" stroke="url(#paint2_linear_1652_501)" stroke-width="35.4167" stroke-linecap="round"/>
<defs>
<linearGradient id="paint0_linear_1652_501" x1="335.748" y1="344.966" x2="274.891" y2="434.115" gradientUnits="userSpaceOnUse">
<stop stop-color="#FF9A70"/>
<stop offset="1" stop-color="#E14E16"/>
</linearGradient>
<linearGradient id="paint1_linear_1652_501" x1="301.746" y1="231.278" x2="233.593" y2="347.189" gradientUnits="userSpaceOnUse">
<stop stop-color="#FF9A70"/>
<stop offset="1" stop-color="#E14E16"/>
</linearGradient>
<linearGradient id="paint2_linear_1652_501" x1="398.081" y1="219.945" x2="225.601" y2="412.966" gradientUnits="userSpaceOnUse">
<stop stop-color="#FF9A70"/>
<stop offset="1" stop-color="#E14E16"/>
</linearGradient>
</defs>
</svg>
